# Blender 4.2.3 LTS
# www.blender.org
mtllib untitled.mtl
o Plane
v 0.165440 -0.321372 -2.781082
v 1.879774 0.708704 -2.781082
v 1.879774 0.708704 -4.781082
v -4.433330 -0.618549 2.519631
v -2.850653 -1.794119 2.183223
v -3.601457 -2.294119 0.398204
v -3.433452 0.948376 -2.401083
v -2.121334 -0.561043 -2.401083
v -2.121334 -0.561043 -4.401083
v 3.813955 1.550392 0.953659
v 5.294919 2.299606 -0.162328
v 4.591259 1.316940 -1.755824
v -0.577393 -0.458548 6.437935
v 1.422607 -0.458548 6.437935
v 1.422607 -1.634119 4.819901
v -1.777393 0.193666 1.388917
v 0.222607 0.193666 1.388917
v 0.222607 0.193666 -0.611083
vn -0.5150 0.8572 -0.0000
vn 0.4826 0.7694 -0.4185
vn 0.7547 0.6561 -0.0000
vn -0.5726 0.7863 -0.2320
vn -0.0000 0.8090 -0.5878
vn -0.0000 1.0000 -0.0000
vt 0.000000 0.000000
vt 1.000000 0.000000
vt 1.000000 1.000000
s 0
f 1/1/1 2/2/1 3/3/1
f 4/1/2 5/2/2 6/3/2
f 7/1/3 8/2/3 9/3/3
f 10/1/4 11/2/4 12/3/4
f 13/1/5 14/2/5 15/3/5
f 16/1/6 17/2/6 18/3/6
